<svg width="20" height="20" viewBox="0 0 20 20" fill="none" xmlns="http://www.w3.org/2000/svg">
    <path d="M6.66667 4.16663C4.36548 4.16663 2.5 6.67821 2.5 9.1898C2.5 12.12 2.91667 14.213 4.58333 16.7245C5.85037 18.4218 7.54189 18.8473 9.34496 17.6586C9.72974 17.4049 10.2703 17.4049 10.655 17.6586C12.4581 18.8473 14.1496 18.4218 15.4167 16.7245C17.0833 14.213 17.5 12.12 17.5 9.1898C17.5 6.67821 15.6345 4.16663 13.3333 4.16663C12.1455 4.16663 11.0737 4.82071 10.3147 5.52708C10.1384 5.6912 9.86164 5.6912 9.68528 5.52708C8.92627 4.82071 7.85452 4.16663 6.66667 4.16663Z"
          stroke="#03A9F4" stroke-width="1.5" stroke-linejoin="round"/>
    <path d="M5 9.99996C5 8.6387 5.68561 7.27744 6.66667 6.66663" stroke="#03A9F4" stroke-width="1.5"
          stroke-linecap="round" stroke-linejoin="round"/>
    <path d="M10 4.99996C10 3.88885 10.5 1.66663 12.5 1.66663" stroke="#03A9F4" stroke-width="1.5"
          stroke-linecap="round" stroke-linejoin="round"/>
</svg>
