<svg width="20" height="20" viewBox="0 0 20 20" fill="none" xmlns="http://www.w3.org/2000/svg">
    <path d="M17.4999 14.1072V8.33341C17.4999 5.19072 17.4999 3.61937 16.5236 2.64306C15.5473 1.66675 13.9759 1.66675 10.8333 1.66675H9.99992C6.85722 1.66675 5.28587 1.66675 4.30956 2.64306C3.33325 3.61937 3.33325 5.19072 3.33325 8.33341V16.2501"
          stroke="#009688" stroke-width="1.5" stroke-linecap="round"/>
    <path d="M17.4999 14.1667H5.41659C4.26599 14.1667 3.33325 15.0995 3.33325 16.2501C3.33325 17.4007 4.26599 18.3334 5.41659 18.3334H17.4999"
          stroke="#009688" stroke-width="1.5" stroke-linecap="round"/>
    <path d="M17.4998 18.3334C16.3492 18.3334 15.4165 17.4007 15.4165 16.2501C15.4165 15.0995 16.3492 14.1667 17.4998 14.1667"
          stroke="#009688" stroke-width="1.5" stroke-linecap="round"/>
    <path d="M11.9897 5.70781C12.2548 5.52857 12.5736 5.42402 12.9167 5.42402C13.8371 5.42402 14.5833 6.17676 14.5833 7.10531C14.5833 8.01896 13.8297 8.78337 12.9167 8.78337V9.58337C12.9167 10.369 12.9167 10.7619 12.6726 11.006C12.4285 11.25 12.0357 11.25 11.25 11.25H9.58333C8.79766 11.25 8.40482 11.25 8.16074 11.006C7.91667 10.7619 7.91667 10.369 7.91667 9.58337V8.88754C6.94347 8.88754 6.25 8.16266 6.25 7.10531C6.25 6.17676 6.99619 5.42402 7.91667 5.42402C8.25972 5.42402 8.57856 5.52857 8.84359 5.70781C9.07138 5.05294 9.68967 4.58337 10.4167 4.58337C11.1437 4.58337 11.762 5.05294 11.9897 5.70781ZM11.9897 5.70781C12.0504 5.88209 12.0833 6.0695 12.0833 6.26467"
          stroke="#009688" stroke-width="1.5" stroke-linecap="round" stroke-linejoin="round"/>
</svg>
