<svg width="20" height="20" viewBox="0 0 20 20" fill="none" xmlns="http://www.w3.org/2000/svg">
    <g clip-path="url(#clip0_1451_242)">
        <path d="M8.79195 2.5C5.5816 2.50578 3.9005 2.5846 2.82615 3.65894C1.66675 4.81835 1.66675 6.68438 1.66675 10.4164C1.66675 14.1485 1.66675 16.0145 2.82615 17.1739C3.98555 18.3333 5.85158 18.3333 9.58364 18.3333C13.3157 18.3333 15.1817 18.3333 16.3411 17.1739C17.4155 16.0996 17.4943 14.4185 17.5001 11.2081"
              stroke="#9C27B0" stroke-width="1.5" stroke-linecap="round" stroke-linejoin="round"/>
        <path d="M9.21306 10.8333C8.61027 3.22192 14.002 1.06291 18.3172 1.80362C18.4914 4.32609 17.2572 5.27064 14.9067 5.70683C15.3606 6.18109 16.1626 6.77791 16.0761 7.52395C16.0145 8.05484 15.654 8.31532 14.9329 8.83628C13.3527 9.97795 11.5221 10.6979 9.21306 10.8333Z"
              stroke="#9C27B0" stroke-width="1.5" stroke-linecap="round" stroke-linejoin="round"/>
        <path d="M7.5 14.1666C9.16667 9.58329 10.8003 8.03026 12.5 6.66663" stroke="#9C27B0" stroke-width="1.5"
              stroke-linecap="round" stroke-linejoin="round"/>
    </g>
    <defs>
        <clipPath id="clip0_1451_242">
            <rect width="20" height="20" fill="white"/>
        </clipPath>
    </defs>
</svg>
