<svg width="20" height="20" viewBox="0 0 20 20" fill="none" xmlns="http://www.w3.org/2000/svg">
    <path d="M15.8332 12.5001V15.7408C15.8332 17.5949 15.2201 18.3334 13.2406 18.3334H6.7591C4.90498 18.3334 4.1665 17.7204 4.1665 15.7408V12.5001C4.1665 9.27842 6.77818 6.66675 9.99984 6.66675C13.2215 6.66675 15.8332 9.27842 15.8332 12.5001Z"
          stroke="#FE9725" stroke-width="1.5" stroke-linecap="round"/>
    <path d="M13.3332 12.5001C13.3332 10.6591 11.8408 9.16675 9.99984 9.16675C8.15889 9.16675 6.6665 10.6591 6.6665 12.5001"
          stroke="#FE9725" stroke-width="1.5" stroke-linecap="round"/>
    <path d="M10 14.1667L10.8333 12.5" stroke="#FE9725" stroke-width="1.5" stroke-linecap="round"/>
    <path d="M13.5936 4.16675H6.40622C5.66988 4.16675 5.30172 4.16675 4.97776 4.04005C4.87015 3.99796 4.76722 3.94591 4.67047 3.88465C4.3792 3.70023 4.17498 3.41078 3.76653 2.83188C3.44821 2.3807 3.28905 2.15512 3.34392 1.97066C3.36128 1.9123 3.39191 1.85823 3.43367 1.81221C3.56566 1.66675 3.85259 1.66675 4.42645 1.66675H15.5734C16.1472 1.66675 16.4342 1.66675 16.5662 1.81221C16.6079 1.85823 16.6386 1.9123 16.6559 1.97066C16.7108 2.15512 16.5516 2.3807 16.2333 2.83188C15.8249 3.41078 15.6206 3.70024 15.3294 3.88465C15.2326 3.94591 15.1297 3.99796 15.0221 4.04005C14.6981 4.16675 14.33 4.16675 13.5936 4.16675Z"
          stroke="#FE9725" stroke-width="1.5" stroke-linecap="round"/>
    <path d="M11.6666 6.66675V4.16675M8.33325 6.66675V4.16675" stroke="#FE9725" stroke-width="1.5"
          stroke-linecap="round"/>
</svg>
