<svg width="55" height="55" viewBox="0 0 55 55" fill="none" xmlns="http://www.w3.org/2000/svg">
<path d="M14.9177 9.21313C15.9547 9.03517 17.017 9.06969 18.0402 9.31461C18.1101 8.87013 18.2415 8.43753 18.4305 8.02921C18.6997 7.42326 19.0995 6.88435 19.6014 6.45107C20.1843 5.96188 20.4171 6.06076 20.8491 5.54686C21.0637 5.29446 21.3578 4.94839 21.3578 4.43969C21.3517 4.23423 21.3033 4.03222 21.2158 3.84623C21.1283 3.66024 21.0035 3.49424 20.8491 3.35854C20.5405 3.1004 20.143 2.97338 19.7419 3.00466C19.3802 3.02808 19.0914 3.1725 18.584 3.54459C17.9993 3.94513 17.4689 4.4196 17.0059 4.9562C16.3221 5.78129 15.776 6.71134 15.3887 7.71046C15.1954 8.19923 15.038 8.70146 14.9177 9.21313Z" fill="#E4FFF1"/>
<path d="M9.7253 12.9687C9.99982 12.5016 11.9956 9.20613 15.7308 8.95373C19.5272 8.69353 21.9497 11.7926 22.1123 12.0072C22.6493 12.7369 23.0592 13.5519 23.3249 14.418C23.991 16.4541 23.3639 17.0201 23.7841 19.2318C24.1211 21.0051 24.8445 22.31 25.6927 23.84C26.2498 24.8434 26.8794 25.8049 27.5766 26.7166C30.9241 31.2454 29.3668 45.7375 23.0621 50.5669C21.7612 51.5457 20.2874 52.2704 18.718 52.7031C17.1809 53.0674 15.5835 53.0962 14.0343 52.7877C10.7388 52.1177 8.68969 50.023 7.65928 48.9354C2.42007 43.4412 2.9691 35.7652 3.06017 34.4889C3.27473 31.9796 3.87415 29.5184 4.83737 27.1914C6.26849 23.7229 7.29109 23.5304 8.26425 20.4769C9.51714 16.5517 8.26165 15.4757 9.7253 12.9687Z" fill="url(#paint0_linear_4342_3305)"/>
<path d="M44.7201 15.0963C43.5733 15.2622 42.4807 15.6924 41.5287 16.3531C40.5985 16.9854 40.5361 17.3353 39.4588 18.3892C38.1478 19.619 36.6749 20.6638 35.0809 21.4947C33.6432 22.2285 32.916 22.3261 31.6189 22.7957C28.0489 24.0785 25.6342 26.194 24.8535 26.8939C22.383 29.1188 20.4953 31.9151 19.3554 35.0383C18.7739 36.6308 17.9126 39.0715 18.2014 42.2681C18.312 43.508 18.5358 45.6963 20.0085 47.9783C21.0167 49.5316 22.3869 50.8169 24.0014 51.7239C30.2463 55.1339 37.7922 50.5764 38.5117 50.1237C40.9498 48.6015 42.3939 46.8373 43.2994 45.7132C44.3168 44.4486 47.2142 40.8474 47.8127 36.1416C47.9258 35.2569 47.9428 34.4659 48.2888 33.1388C48.7342 31.4916 49.4156 29.9175 50.3119 28.4656C51.5089 26.514 52.0032 26.514 52.5145 25.1011C52.9231 23.9583 53.0568 22.7353 52.9049 21.5311C52.8216 20.865 52.5002 18.6142 50.5461 16.8644C50.3978 16.7343 47.9935 14.6487 44.7201 15.0963Z" fill="url(#paint1_linear_4342_3305)"/>
<path d="M34.6776 30.2331C36.421 29.9794 37.3226 30.3215 37.8339 30.6065C38.4312 30.9446 38.932 31.4301 39.2884 32.0168C39.5486 32.4513 40.0066 33.3815 39.7984 35.5555C39.6865 36.716 39.3925 39.404 37.3668 42.1218C36.6018 43.1483 35.7718 44.2633 34.2027 45.0283C33.6966 45.2742 31.4966 46.3475 28.9986 45.4732C27.8297 45.0822 26.8128 44.3346 26.0909 43.3356C24.9629 41.7367 25.0331 40.0415 25.0722 39.3298C25.2023 36.8787 26.5944 35.2277 27.427 34.235C27.427 34.2285 30.2398 30.881 34.6776 30.2331Z" fill="url(#paint2_linear_4342_3305)"/>
<defs>
<linearGradient id="paint0_linear_4342_3305" x1="16.1484" y1="10.4005" x2="16.1484" y2="51.9668" gradientUnits="userSpaceOnUse">
<stop stop-color="#99FEAC"/>
<stop offset="1" stop-color="#04B79C"/>
</linearGradient>
<linearGradient id="paint1_linear_4342_3305" x1="50.5695" y1="18.6871" x2="22.2099" y2="48.9788" gradientUnits="userSpaceOnUse">
<stop stop-color="#E4FFF1"/>
<stop offset="1" stop-color="#C3FFE8"/>
</linearGradient>
<linearGradient id="paint2_linear_4342_3305" x1="27.751" y1="43.4397" x2="38.0837" y2="31.8919" gradientUnits="userSpaceOnUse">
<stop stop-color="#1FC49F"/>
<stop offset="1" stop-color="#4CD9A4"/>
</linearGradient>
</defs>
</svg>
