<svg width="20" height="20" viewBox="0 0 20 20" fill="none" xmlns="http://www.w3.org/2000/svg">
<path opacity="0.4" d="M18.6641 5C19.5156 6.47266 20 8.17969 20 10C20 15.5234 15.5234 20 10 20C4.47656 20 0 15.5234 0 10C0 4.47656 4.47656 0 10 0C11.9023 0 13.6797 0.53125 15.1914 1.45312C15.2656 1.60938 15.3633 1.75 15.4766 1.875C15 2.41016 14.8633 3.17578 15.1406 3.84375C15.4297 4.54297 16.1133 5 16.8711 5H18.6602H18.6641ZM10 3.125C10 3.46875 10.2812 3.75 10.625 3.75H11.6172L10.1836 5.18359C10.0039 5.36328 9.95312 5.63281 10.0469 5.86328C10.1406 6.09375 10.3711 6.25 10.625 6.25H13.125C13.4688 6.25 13.75 5.96875 13.75 5.625C13.75 5.28125 13.4688 5 13.125 5H12.1328L13.5664 3.56641C13.7461 3.38672 13.7969 3.11719 13.7031 2.88672C13.6094 2.65625 13.3789 2.5 13.125 2.5H10.625C10.2812 2.5 10 2.78125 10 3.125ZM10 16.5625C10.4144 16.5625 10.8118 16.3979 11.1049 16.1049C11.3979 15.8118 11.5625 15.4144 11.5625 15C11.5625 14.5856 11.3979 14.1882 11.1049 13.8951C10.8118 13.6021 10.4144 13.4375 10 13.4375C9.5856 13.4375 9.18817 13.6021 8.89515 13.8951C8.60212 14.1882 8.4375 14.5856 8.4375 15C8.4375 15.4144 8.60212 15.8118 8.89515 16.1049C9.18817 16.3979 9.5856 16.5625 10 16.5625ZM12.375 9.3125C12.168 9.03516 11.7773 8.98047 11.5 9.1875C11.2227 9.39453 11.168 9.78516 11.375 10.0625C12.5625 11.6445 14.9375 11.6445 16.125 10.0625C16.332 9.78516 16.2773 9.39453 16 9.1875C15.7227 8.98047 15.332 9.03516 15.125 9.3125C14.4375 10.2305 13.0625 10.2305 12.375 9.3125ZM7.625 9.3125C6.9375 10.2305 5.5625 10.2305 4.875 9.3125C4.66797 9.03516 4.27734 8.98047 4 9.1875C3.72266 9.39453 3.66797 9.78516 3.875 10.0625C5.0625 11.6445 7.4375 11.6445 8.625 10.0625C8.83203 9.78516 8.77734 9.39453 8.5 9.1875C8.22266 8.98047 7.83203 9.03516 7.625 9.3125Z" fill="#FF8289"/>
<path d="M16.2504 0.625C16.2504 0.96875 16.5316 1.25 16.8754 1.25H17.8675L16.434 2.68359C16.2543 2.86328 16.2035 3.13281 16.2972 3.36328C16.391 3.59375 16.6215 3.75 16.8754 3.75H19.3754C19.7191 3.75 20.0004 3.46875 20.0004 3.125C20.0004 2.78125 19.7191 2.5 19.3754 2.5H18.3832L19.8168 1.06641C19.9965 0.886719 20.0472 0.617188 19.9535 0.386719C19.8597 0.15625 19.6293 0 19.3754 0H16.8754C16.5316 0 16.2504 0.28125 16.2504 0.625ZM10.0004 3.125C10.0004 3.46875 10.2816 3.75 10.6254 3.75H11.6175L10.184 5.18359C10.0043 5.36328 9.95348 5.63281 10.0472 5.86328C10.141 6.09375 10.3715 6.25 10.6254 6.25H13.1254C13.4691 6.25 13.7504 5.96875 13.7504 5.625C13.7504 5.28125 13.4691 5 13.1254 5H12.1332L13.5668 3.56641C13.7465 3.38672 13.7972 3.11719 13.7035 2.88672C13.6097 2.65625 13.3793 2.5 13.1254 2.5H10.6254C10.2816 2.5 10.0004 2.78125 10.0004 3.125ZM15.1254 9.3125C14.4379 10.2305 13.0629 10.2305 12.3754 9.3125C12.1683 9.03516 11.7777 8.98047 11.5004 9.1875C11.223 9.39453 11.1683 9.78516 11.3754 10.0625C12.5629 11.6445 14.9379 11.6445 16.1254 10.0625C16.3324 9.78516 16.2777 9.39453 16.0004 9.1875C15.723 8.98047 15.3324 9.03516 15.1254 9.3125ZM4.87536 9.3125C4.66833 9.03516 4.2777 8.98047 4.00036 9.1875C3.72302 9.39453 3.66833 9.78516 3.87536 10.0625C5.06286 11.6445 7.43786 11.6445 8.62536 10.0625C8.83239 9.78516 8.7777 9.39453 8.50036 9.1875C8.22302 8.98047 7.83239 9.03516 7.62536 9.3125C6.93786 10.2305 5.56286 10.2305 4.87536 9.3125Z" fill="#FF8289"/>
</svg>
