<svg width="55" height="55" viewBox="0 0 55 55" fill="none" xmlns="http://www.w3.org/2000/svg">
<path d="M15.6055 3H38.6641C39.8855 3 41.0569 3.48522 41.9206 4.34891C42.7843 5.2126 43.2695 6.38402 43.2695 7.60547V33.7773C43.2695 37.2652 41.884 40.6102 39.4177 43.0765C36.9514 45.5428 33.6064 46.9284 30.1185 46.9284H24.151C20.6632 46.9284 17.3181 45.5428 14.8519 43.0765C12.3856 40.6102 11 37.2652 11 33.7773L11 7.60547C11 6.38402 11.4852 5.2126 12.3489 4.34891C13.2126 3.48522 14.384 3 15.6055 3Z" fill="url(#paint0_linear_4342_3281)"/>
<path d="M35.8307 8.67847H18.4388C17.5571 8.67847 16.8424 9.39318 16.8424 10.2748V30.724C16.8424 31.6057 17.5571 32.3204 18.4388 32.3204H35.8307C36.7123 32.3204 37.427 31.6057 37.427 30.724V10.2748C37.427 9.39318 36.7123 8.67847 35.8307 8.67847Z" fill="#FFEAEA"/>
<path d="M21.3047 38.1704C22.1374 38.1704 22.8125 37.4953 22.8125 36.6626C22.8125 35.8299 22.1374 35.1548 21.3047 35.1548C20.4719 35.1548 19.7969 35.8299 19.7969 36.6626C19.7969 37.4953 20.4719 38.1704 21.3047 38.1704Z" fill="#FFD9DA"/>
<path d="M27.1809 38.1704C28.0136 38.1704 28.6887 37.4953 28.6887 36.6626C28.6887 35.8299 28.0136 35.1548 27.1809 35.1548C26.3482 35.1548 25.6731 35.8299 25.6731 36.6626C25.6731 37.4953 26.3482 38.1704 27.1809 38.1704Z" fill="#FFD9DA"/>
<path d="M33.0912 38.1704C33.9239 38.1704 34.599 37.4953 34.599 36.6626C34.599 35.8299 33.9239 35.1548 33.0912 35.1548C32.2584 35.1548 31.5834 35.8299 31.5834 36.6626C31.5834 37.4953 32.2584 38.1704 33.0912 38.1704Z" fill="#FFD9DA"/>
<path d="M28.5573 41.0496H25.7461C24.881 41.0496 24.1797 41.7509 24.1797 42.616V51.4337C24.1797 52.2988 24.881 53.0001 25.7461 53.0001H28.5573C29.4224 53.0001 30.1237 52.2988 30.1237 51.4337V42.616C30.1237 41.7509 29.4224 41.0496 28.5573 41.0496Z" fill="url(#paint1_linear_4342_3281)"/>
<path d="M25.8815 15.4807C26.0483 15.2139 26.2865 14.9992 26.569 14.8609C26.897 14.7189 27.2612 14.6829 27.6107 14.758C27.9857 14.84 28.3919 15.0835 29.694 17.2463C30.2148 18.0992 30.4661 18.5249 30.7357 19.107C31.1706 20.064 31.4375 20.6525 31.5247 21.4924C31.5781 21.9976 31.7018 23.1851 31.0039 24.357C30.6181 24.9922 30.0703 25.5135 29.4167 25.8674C28.6505 26.2922 27.7777 26.4863 26.9037 26.4262C26.0297 26.3661 25.1917 26.0545 24.4909 25.5288C23.8813 25.062 23.4049 24.4433 23.1094 23.7346C23.0833 23.6617 23.0273 23.5119 22.9792 23.3179C22.2708 20.8088 23.8203 18.5223 25.8815 15.4807Z" fill="#FF2224"/>
<defs>
<linearGradient id="paint0_linear_4342_3281" x1="27.1667" y1="4.68229" x2="27.0833" y2="45.862" gradientUnits="userSpaceOnUse">
<stop stop-color="#FF0305"/>
<stop offset="1" stop-color="#FF5254"/>
</linearGradient>
<linearGradient id="paint1_linear_4342_3281" x1="27.1393" y1="41.9324" x2="27.1641" y2="52.1733" gradientUnits="userSpaceOnUse">
<stop stop-color="#FFCCCC"/>
<stop offset="1" stop-color="#FFAFB0"/>
</linearGradient>
</defs>
</svg>
