<svg width="25" height="18" viewBox="0 0 25 18" fill="none" xmlns="http://www.w3.org/2000/svg">
<path opacity="0.4" d="M0 8.75C0 8.05859 0.558594 7.5 1.25 7.5V10C0.558594 10 0 9.44141 0 8.75ZM17.5 10H7.5V7.5H17.5V10ZM23.75 10V7.5C24.4414 7.5 25 8.05859 25 8.75C25 9.44141 24.4414 10 23.75 10Z" fill="#889BC8"/>
<path d="M5 0C4.30859 0 3.75 0.558594 3.75 1.25V3.75H2.5C1.80859 3.75 1.25 4.30859 1.25 5V12.5C1.25 13.1914 1.80859 13.75 2.5 13.75H3.75V16.25C3.75 16.9414 4.30859 17.5 5 17.5H6.25C6.94141 17.5 7.5 16.9414 7.5 16.25V1.25C7.5 0.558594 6.94141 0 6.25 0H5ZM20 0H18.75C18.0586 0 17.5 0.558594 17.5 1.25V16.25C17.5 16.9414 18.0586 17.5 18.75 17.5H20C20.6914 17.5 21.25 16.9414 21.25 16.25V13.75H22.5C23.1914 13.75 23.75 13.1914 23.75 12.5V5C23.75 4.30859 23.1914 3.75 22.5 3.75H21.25V1.25C21.25 0.558594 20.6914 0 20 0Z" fill="#889BC8"/>
</svg>
