<svg width="55" height="55" viewBox="0 0 55 55" fill="none" xmlns="http://www.w3.org/2000/svg">
<path d="M14.7295 3L40.6121 3.09689C40.9098 3.24356 41.3188 3.50846 41.5308 3.97159C41.8938 4.77606 41.4292 5.71121 41.3196 5.9441C41.0034 6.62146 40.8709 9.04733 40.6059 13.8982C40.4928 15.9551 40.7737 19.685 43.6243 25.4932C45.2709 29.4898 45.5713 32.7602 45.5624 34.9309C45.5563 36.4421 45.3981 37.7337 44.3187 43.3028C43.6252 46.878 43.0078 49.8648 42.5519 52.0311C42.4821 52.2683 42.3508 52.4824 42.1715 52.6516C41.9922 52.8208 41.7713 52.9389 41.5317 52.9938L31.236 53C30.9832 52.9862 30.7401 52.8968 30.5381 52.7432C30.336 52.5896 30.1841 52.3788 30.1018 52.1377L28.3457 42.2121L26.7556 42.2254C26.1726 45.4913 25.589 48.7566 25.0048 52.0213C24.9657 52.2736 24.8452 52.506 24.662 52.6827C24.4788 52.8594 24.2429 52.9706 23.9907 52.9991H13.7154C13.2304 52.9006 12.8016 52.6183 12.5175 52.2106C12.1562 50.247 11.5723 47.1091 10.8118 43.213C9.86213 38.339 9.56532 37.0457 9.52999 35.0287C9.492 32.8064 9.76761 29.5387 11.3647 25.5395C13.2151 21.8783 14.269 17.8626 14.4565 13.7595C14.5702 11.0821 14.3094 8.40183 13.6818 5.79743C13.635 5.70143 13.2189 4.80451 13.6933 3.91559C13.9221 3.49817 14.2886 3.17431 14.7295 3Z" fill="url(#paint0_linear_4342_3209)"/>
<path d="M27.5452 23.7757C28.3502 23.7757 29.0028 23.1191 29.0028 22.309C29.0028 21.499 28.3502 20.8423 27.5452 20.8423C26.7402 20.8423 26.0876 21.499 26.0876 22.309C26.0876 23.1191 26.7402 23.7757 27.5452 23.7757Z" fill="url(#paint1_linear_4342_3209)"/>
<path d="M11.3991 25.5261C16.7241 26.8882 22.1975 27.575 27.6919 27.5706C33.076 27.5648 38.4392 26.8949 43.6613 25.5759C44.9553 28.5395 45.6035 31.7475 45.5623 34.9842C39.3339 35.9873 33.4336 38.473 28.3526 42.2343L26.7467 42.2227C24.4939 39.9374 21.811 38.127 18.8549 36.8971C15.8988 35.6672 12.7287 35.0426 9.52989 35.0598C9.48809 31.7857 10.1247 28.5389 11.3991 25.5261Z" fill="url(#paint2_linear_4342_3209)"/>
<path d="M7.21023 12.0819H10.6439C10.9261 12.158 11.1816 12.3119 11.3815 12.5264C11.6223 12.7908 11.7679 13.1289 11.7949 13.4864C11.8205 14.1087 11.3903 14.7309 10.7119 15.0323L7.24468 15.0189L7.79501 15.9585C7.95802 16.3122 7.9758 16.7163 7.84448 17.083C7.56004 17.8253 6.75971 17.9666 6.70317 17.9719C5.94878 18.0928 5.42583 17.5719 5.37813 17.5204L3.08138 14.0998C2.96202 13.7648 2.97434 13.3966 3.11583 13.0704C3.19887 12.9264 4.63257 10.4659 5.36223 9.64719C5.50753 9.47783 5.68862 9.34328 5.89224 9.2534C6.24209 9.11178 6.63129 9.10356 6.98673 9.23029C7.04415 9.25162 7.67223 9.50408 7.8701 10.1921C7.9574 10.5011 7.94534 10.83 7.83565 11.1317L7.21023 12.0819Z" fill="url(#paint3_linear_4342_3209)"/>
<path d="M47.883 12.0819H44.4494C44.1671 12.158 43.9116 12.3119 43.7117 12.5264C43.4709 12.7908 43.3253 13.1289 43.2983 13.4864C43.2727 14.1087 43.7029 14.7309 44.3813 15.0323L47.8485 15.0189L47.2982 15.9585C47.1352 16.3122 47.1174 16.7163 47.2487 17.083C47.5332 17.8253 48.3335 17.9666 48.39 17.9719C49.1444 18.0928 49.6674 17.5719 49.7151 17.5204L52.0118 14.0998C52.1312 13.7648 52.1189 13.3966 51.9774 13.0704C51.8944 12.9264 50.4607 10.4659 49.731 9.64719C49.5857 9.47783 49.4046 9.34328 49.201 9.2534C48.8511 9.11178 48.4619 9.10356 48.1065 9.23029C48.0491 9.25162 47.421 9.50408 47.2231 10.1921C47.1358 10.5011 47.1479 10.83 47.2576 11.1317L47.883 12.0819Z" fill="url(#paint4_linear_4342_3209)"/>
<defs>
<linearGradient id="paint0_linear_4342_3209" x1="27.5453" y1="3.49957" x2="27.5453" y2="52.9662" gradientUnits="userSpaceOnUse">
<stop stop-color="#FFEFEF"/>
<stop offset="1" stop-color="#FFC4C4"/>
</linearGradient>
<linearGradient id="paint1_linear_4342_3209" x1="27.5452" y1="20.8716" x2="27.5452" y2="23.7731" gradientUnits="userSpaceOnUse">
<stop stop-color="#E36161"/>
<stop offset="1" stop-color="#E36161"/>
</linearGradient>
<linearGradient id="paint2_linear_4342_3209" x1="27.5461" y1="25.6932" x2="27.5461" y2="42.2227" gradientUnits="userSpaceOnUse">
<stop stop-color="#D44141"/>
<stop offset="1" stop-color="#B70404"/>
</linearGradient>
<linearGradient id="paint3_linear_4342_3209" x1="7.39485" y1="9.22851" x2="7.39485" y2="17.9844" gradientUnits="userSpaceOnUse">
<stop stop-color="#FE9A9A"/>
<stop offset="1" stop-color="#ED7777"/>
</linearGradient>
<linearGradient id="paint4_linear_4342_3209" x1="47.6993" y1="9.22851" x2="47.6993" y2="17.9844" gradientUnits="userSpaceOnUse">
<stop stop-color="#FE9A9A"/>
<stop offset="1" stop-color="#ED7777"/>
</linearGradient>
</defs>
</svg>
