<svg width="55" height="55" viewBox="0 0 55 55" fill="none" xmlns="http://www.w3.org/2000/svg">
<path d="M14.8113 3L40.8566 3.09689C41.1562 3.24356 41.5678 3.50846 41.7811 3.97159C42.1465 4.77606 41.6789 5.71121 41.5687 5.9441C41.2504 6.62146 41.1171 9.04733 40.8504 13.8982C40.7366 15.9551 41.0193 19.685 43.8879 25.4932C45.5448 29.4898 45.847 32.7602 45.8381 34.9309C45.8319 36.4421 45.6728 37.7337 44.5865 43.3028C43.8887 46.878 43.2674 49.8648 42.8087 52.0311C42.7385 52.2683 42.6063 52.4824 42.4259 52.6516C42.2454 52.8208 42.0232 52.9389 41.782 52.9938L31.4216 53C31.1672 52.9862 30.9226 52.8968 30.7193 52.7432C30.5159 52.5896 30.3631 52.3788 30.2803 52.1377L28.5131 42.2121L26.913 42.2254C26.3263 45.4913 25.7391 48.7566 25.1512 52.0213C25.1118 52.2736 24.9906 52.506 24.8063 52.6827C24.6219 52.8594 24.3845 52.9706 24.1307 52.9991H13.7908C13.3028 52.9006 12.8712 52.6183 12.5854 52.2106C12.2218 50.247 11.6343 47.1091 10.8689 43.213C9.91331 38.339 9.61464 37.0457 9.57908 35.0287C9.54086 32.8064 9.8182 29.5387 11.4254 25.5395C13.2873 21.8783 14.3479 17.8626 14.5366 13.7595C14.651 11.0821 14.3885 8.40183 13.757 5.79743C13.7099 5.70143 13.2912 4.80451 13.7686 3.91559C13.9988 3.49817 14.3676 3.17431 14.8113 3Z" fill="url(#paint0_linear_4342_3223)"/>
<path d="M27.7078 23.7762C28.5179 23.7762 29.1745 23.1195 29.1745 22.3095C29.1745 21.4994 28.5179 20.8428 27.7078 20.8428C26.8978 20.8428 26.2411 21.4994 26.2411 22.3095C26.2411 23.1195 26.8978 23.7762 27.7078 23.7762Z" fill="url(#paint1_linear_4342_3223)"/>
<path d="M11.46 25.5256C16.8186 26.8877 22.3264 27.5745 27.8553 27.5702C33.2733 27.5643 38.6702 26.8944 43.9252 25.5754C45.2273 28.539 45.8796 31.747 45.8382 34.9837C39.5705 35.9868 33.6331 38.4725 28.5202 42.2338L26.9042 42.2222C24.6372 39.937 21.9375 38.1265 18.9627 36.8966C15.988 35.6667 12.798 35.0421 9.57909 35.0593C9.53704 31.7853 10.1776 28.5384 11.46 25.5256Z" fill="url(#paint2_linear_4342_3223)"/>
<path d="M7.61548 12.0819H4.15669C3.87266 12.158 3.61555 12.3119 3.41444 12.5264C3.1738 12.7902 3.0283 13.1269 3.00109 13.4829C2.97531 14.1051 3.40822 14.7274 4.09091 15.0287L7.57992 15.0154L7.02612 15.955C6.86209 16.3086 6.8442 16.7127 6.97634 17.0795C7.26258 17.8217 8.06794 17.963 8.12483 17.9684C8.88397 18.0893 9.41021 17.5684 9.45821 17.5168L11.7738 14.0962C11.894 13.7612 11.8816 13.393 11.7392 13.0669C11.6592 12.9264 10.2165 10.4668 9.48221 9.64719C9.33599 9.47783 9.15377 9.34328 8.94886 9.2534C8.59681 9.11178 8.20517 9.10356 7.84749 9.23029C7.78971 9.25162 7.15768 9.50408 6.95412 10.1921C6.86627 10.5011 6.87841 10.83 6.98879 11.1317L7.61548 12.0819Z" fill="url(#paint3_linear_4342_3223)"/>
<path d="M47.8027 12.0819H51.2579C51.5419 12.158 51.799 12.3119 52.0002 12.5264C52.2425 12.7908 52.389 13.1289 52.4162 13.4864C52.442 14.1087 52.009 14.7309 51.3264 15.0323L47.8373 15.0189L48.3911 15.9585C48.5552 16.3122 48.5731 16.7163 48.4409 17.083C48.1547 17.8253 47.3493 17.9666 47.2924 17.9719C46.5333 18.0928 46.0071 17.5719 45.9591 17.5204L43.6434 14.0998C43.5233 13.7648 43.5357 13.3966 43.6781 13.0704C43.7616 12.9264 45.2044 10.4659 45.9386 9.64719C46.0848 9.47783 46.2671 9.34328 46.472 9.2534C46.824 9.11178 47.2157 9.10356 47.5733 9.23029C47.6311 9.25162 48.2631 9.50408 48.4667 10.1921C48.5545 10.5011 48.5424 10.83 48.432 11.1317L47.8027 12.0819Z" fill="url(#paint4_linear_4342_3223)"/>
<defs>
<linearGradient id="paint0_linear_4342_3223" x1="27.7077" y1="3.49957" x2="27.7077" y2="52.9662" gradientUnits="userSpaceOnUse">
<stop stop-color="#F0FFF4"/>
<stop offset="1" stop-color="#C3FFE8"/>
</linearGradient>
<linearGradient id="paint1_linear_4342_3223" x1="27.7078" y1="20.8721" x2="27.7078" y2="23.7735" gradientUnits="userSpaceOnUse">
<stop stop-color="#5FE2A6"/>
<stop offset="1" stop-color="#5AE0A5"/>
</linearGradient>
<linearGradient id="paint2_linear_4342_3223" x1="27.7086" y1="25.6928" x2="27.7086" y2="42.2222" gradientUnits="userSpaceOnUse">
<stop stop-color="#42D4A3"/>
<stop offset="1" stop-color="#01B59C"/>
</linearGradient>
<linearGradient id="paint3_linear_4342_3223" x1="7.42969" y1="9.22851" x2="7.42969" y2="17.9844" gradientUnits="userSpaceOnUse">
<stop stop-color="#9BFFAC"/>
<stop offset="1" stop-color="#75ECA8"/>
</linearGradient>
<linearGradient id="paint4_linear_4342_3223" x1="47.9876" y1="9.22851" x2="47.9876" y2="17.9844" gradientUnits="userSpaceOnUse">
<stop stop-color="#9BFFAC"/>
<stop offset="1" stop-color="#75ECA8"/>
</linearGradient>
</defs>
</svg>
