<svg width="20" height="20" viewBox="0 0 20 20" fill="none" xmlns="http://www.w3.org/2000/svg">
<path opacity="0.4" d="M4.86719 8.55078L0.160156 1.49219C0.0546875 1.33594 0 1.14844 0 0.960938C0 0.429688 0.429688 0 0.960938 0H5.23047C5.66797 0 6.07812 0.230469 6.30078 0.605469L9.6875 6.25L9.67188 6.25781C7.76172 6.34766 6.05859 7.21484 4.86719 8.55078ZM15.1328 8.55078C13.9414 7.21484 12.2344 6.34766 10.3281 6.25781L10.3125 6.25L13.6992 0.605469C13.9258 0.230469 14.332 0 14.7695 0H19.0391C19.5703 0 20 0.429688 20 0.960938C20 1.14844 19.9453 1.33594 19.8398 1.49219L15.1328 8.55078Z" fill="#889BC8"/>
<path d="M10 20C11.8234 20 13.572 19.2757 14.8614 17.9864C16.1507 16.697 16.875 14.9484 16.875 13.125C16.875 11.3016 16.1507 9.55295 14.8614 8.26364C13.572 6.97433 11.8234 6.25 10 6.25C8.17664 6.25 6.42795 6.97433 5.13864 8.26364C3.84933 9.55295 3.125 11.3016 3.125 13.125C3.125 14.9484 3.84933 16.697 5.13864 17.9864C6.42795 19.2757 8.17664 20 10 20ZM11.2031 11.1914C11.2578 11.3008 11.3594 11.375 11.4766 11.3906L13.4336 11.6758C13.7344 11.7188 13.8516 12.0859 13.6367 12.3008L12.2188 13.6836C12.1328 13.7695 12.0938 13.8867 12.1133 14.0078L12.4492 15.957C12.5 16.2539 12.1875 16.4844 11.918 16.3438L10.168 15.4219C10.0625 15.3672 9.93359 15.3672 9.82812 15.4219L8.07812 16.3438C7.80859 16.4844 7.49609 16.2578 7.54688 15.957L7.88281 14.0078C7.90234 13.8906 7.86328 13.7695 7.77734 13.6836L6.35938 12.3008C6.14063 12.0898 6.26172 11.7227 6.5625 11.6758L8.51953 11.3906C8.63672 11.375 8.74219 11.2969 8.79297 11.1914L9.66797 9.41797C9.80078 9.14453 10.1875 9.14453 10.3242 9.41797L11.1992 11.1914H11.2031Z" fill="#889BC8"/>
</svg>
