<svg width="13" height="20" viewBox="0 0 13 20" fill="none" xmlns="http://www.w3.org/2000/svg">
<g clip-path="url(#clip0_4810_6931)">
<path opacity="0.4" d="M4.28125 11.5547C4.38281 11.9375 4.57812 12.2969 4.85547 12.5977L6.03906 13.8906L4.95703 16.5938C4.86328 16.8281 4.72266 17.043 4.54297 17.2227L2.13281 19.6328C1.64453 20.1211 0.851562 20.1211 0.363281 19.6328C-0.125 19.1445 -0.125 18.3516 0.363281 17.8633L2.68359 15.5469L4.28125 11.5547Z" fill="#889BC8"/>
<path d="M8.12511 3.75C8.62239 3.75 9.0993 3.55246 9.45093 3.20083C9.80257 2.84919 10.0001 2.37228 10.0001 1.875C10.0001 1.37772 9.80257 0.900805 9.45093 0.549175C9.0993 0.197544 8.62239 0 8.12511 0C7.62783 0 7.15091 0.197544 6.79928 0.549175C6.44765 0.900805 6.25011 1.37772 6.25011 1.875C6.25011 2.37228 6.44765 2.84919 6.79928 3.20083C7.15091 3.55246 7.62783 3.75 8.12511 3.75ZM4.83214 7.83203C4.8712 7.81641 4.90636 7.80078 4.94542 7.78516L4.28527 10.2656C4.06652 11.0898 4.28136 11.9688 4.85948 12.5977L7.6212 15.6094L8.48058 19.0508C8.64855 19.7188 9.32823 20.1289 9.9962 19.9609C10.6642 19.793 11.0743 19.1133 10.9064 18.4453L10.0079 14.8477C9.9337 14.543 9.78136 14.2656 9.57042 14.0352L7.63683 11.9258L8.39073 9.36719L8.76573 10.2656C8.93761 10.6797 9.25401 11.0195 9.65636 11.2227L10.6993 11.7422C11.3165 12.0508 12.0665 11.8008 12.3751 11.1836C12.6837 10.5664 12.4337 9.81641 11.8165 9.50781L10.9767 9.08984L10.379 7.65234C9.70714 6.04688 8.13683 5 6.39464 5C5.50402 5 4.62511 5.1875 3.81261 5.54688L3.50011 5.68359C2.21495 6.25391 1.23058 7.33984 0.789172 8.67188L0.687609 8.97656C0.468859 9.63281 0.824328 10.3398 1.47667 10.5586C2.12902 10.7773 2.83995 10.4219 3.0587 9.76953L3.16027 9.46484C3.38292 8.79688 3.87511 8.25781 4.51573 7.97266L4.82823 7.83594L4.83214 7.83203Z" fill="#889BC8"/>
</g>
<defs>
<clipPath id="clip0_4810_6931">
<rect width="12.5" height="20" fill="white"/>
</clipPath>
</defs>
</svg>
