<svg width="55" height="55" viewBox="0 0 55 55" fill="none" xmlns="http://www.w3.org/2000/svg">
<path d="M12.8686 3H29.5109C31.4639 4.54679 33.0472 5.80845 34.1305 6.67429C36.8348 8.83303 37.2683 9.19239 37.7996 10.0022C39.7383 12.9617 39.2214 16.1972 39.1576 16.5579C38.9986 17.4607 38.7008 18.3334 38.2748 19.145C39.2665 19.5236 40.2121 20.0132 41.0937 20.6046C42.2422 21.3804 43.272 22.319 44.1508 23.3909C47.3316 27.1667 47.9891 31.6443 47.9891 31.6443C48.1883 33.2979 48.5373 38.0242 45.7471 42.3769C43.505 45.8741 39.7578 48.3245 38.6758 48.6265C38.2171 48.7467 37.7903 48.9663 37.4259 49.2697C37.0971 49.5373 36.8306 49.8731 36.6447 50.254C36.2306 51.1173 36.5678 51.5951 36.1681 52.237C36.0236 52.4688 35.7502 52.7721 35.1877 53L14.1615 52.9974C13.8989 52.9387 13.6526 52.8227 13.4401 52.6576C12.8842 52.2175 12.8529 51.616 12.5483 50.9767C12.1928 50.2293 11.6967 49.9129 11.2072 49.465C9.82314 48.2099 8.58883 46.0043 7.97688 44.4952C7.16508 42.5792 6.85146 40.4889 7.06523 38.419C7.27901 36.3491 8.01322 34.367 9.19948 32.6573C10.0549 31.3735 10.2515 31.574 11.8035 29.6627C13.1485 27.9987 14.414 26.4363 15.2031 24.3648C15.9661 22.3453 15.9504 20.6918 15.9309 18.6984C15.8905 14.5984 14.7487 11.5373 14.1641 10.0022C13.5096 8.29569 12.6889 6.65768 11.7137 5.11187C11.633 4.88411 11.6029 4.64153 11.6253 4.40095C11.6478 4.16038 11.7224 3.92758 11.8439 3.71871C12.077 3.35314 12.4454 3.09474 12.8686 3Z" fill="url(#paint0_linear_4342_3267)"/>
<path opacity="0.8" d="M31.9536 28.5479C31.1816 27.6691 30.1639 27.0419 29.0318 26.7472C26.8653 26.1991 25.1167 27.1379 24.6167 27.4269C24.3563 27.5818 22.428 28.7602 21.8317 31.1624C21.607 32.1005 21.607 33.0783 21.8317 34.0164C22.1338 35.2741 22.7626 36.0918 23.428 36.9368C23.7222 37.3118 24.0399 37.6751 25.937 39.4107C30.287 43.3857 30.3417 43.0563 30.7544 43.611C30.9159 43.8466 31.1419 44.0306 31.4054 44.1409C31.7717 44.26 32.168 44.248 32.5265 44.107C32.7685 44.016 32.9898 43.8774 33.1775 43.6995C34.8375 42.1371 36.6695 40.7661 38.3061 39.1815C39.4779 38.05 39.8269 37.7128 40.3438 37.0761C41.0403 36.2168 41.4466 35.7168 41.776 34.9695C41.9648 34.532 42.7251 32.7014 41.9791 30.5882C41.5383 29.3754 40.7159 28.3383 39.6355 27.6326C39.3607 27.4516 37.1356 26.0363 34.5068 26.8853C33.5252 27.2071 32.6449 27.7804 31.9536 28.5479Z" fill="white"/>
<defs>
<linearGradient id="paint0_linear_4342_3267" x1="27.8313" y1="2.98698" x2="27.4277" y2="53.1654" gradientUnits="userSpaceOnUse">
<stop stop-color="#6190FF"/>
<stop offset="1" stop-color="#8BC9FE"/>
</linearGradient>
</defs>
</svg>
