<svg width="55" height="55" viewBox="0 0 55 55" fill="none" xmlns="http://www.w3.org/2000/svg">
<path d="M14.2887 3L40.5802 3.09689C40.8817 3.24356 41.2981 3.50846 41.5134 3.97159C41.8822 4.77606 41.4102 5.71121 41.299 5.9441C40.9777 6.62146 40.8422 9.04733 40.573 13.8982C40.4591 15.9551 40.7435 19.685 43.6401 25.4932C45.3091 29.4854 45.6142 32.7602 45.6061 34.9309C45.5998 36.4421 45.4383 37.7337 44.3418 43.3028C43.6374 46.878 43.011 49.8648 42.5471 52.0311C42.4766 52.2684 42.3433 52.4828 42.1611 52.6521C41.9789 52.8213 41.7544 52.9393 41.5107 52.9938L31.0533 53C30.7964 52.9866 30.5493 52.8973 30.344 52.7436C30.1387 52.59 29.9844 52.379 29.9012 52.1377L28.1227 42.2121L26.5075 42.2254L24.7281 52.0213C24.6884 52.2735 24.5662 52.5058 24.3803 52.6825C24.1943 52.8591 23.9549 52.9704 23.6989 52.9991H13.2585C12.7655 52.9009 12.3296 52.6186 12.0409 52.2106C11.6748 50.247 11.0807 47.1091 10.3091 43.213C9.34353 38.339 9.04293 37.0457 9.00345 35.0287C8.96397 32.8064 9.24393 29.5387 10.8672 25.5395C12.7468 21.8771 13.8175 17.8601 14.0078 13.7559C14.123 11.0797 13.8581 8.40067 13.2209 5.79743C13.1742 5.70143 12.7516 4.80451 13.2334 3.91559C13.4665 3.4977 13.8398 3.17378 14.2887 3Z" fill="url(#paint0_linear_4342_3241)"/>
<path d="M27.3061 23.7757C28.1238 23.7757 28.7867 23.1191 28.7867 22.309C28.7867 21.499 28.1238 20.8423 27.3061 20.8423C26.4884 20.8423 25.8256 21.499 25.8256 22.309C25.8256 23.1191 26.4884 23.7757 27.3061 23.7757Z" fill="url(#paint1_linear_4342_3241)"/>
<path d="M10.9058 25.5261C16.3147 26.8882 21.8743 27.5751 27.4551 27.5706C32.9244 27.5648 38.3722 26.8949 43.6769 25.5759C44.9915 28.5407 45.6503 31.7499 45.6089 34.9878C39.2817 35.9906 33.2878 38.4763 28.1263 42.2378L26.4959 42.2263C24.4633 40.2001 22.0857 38.545 19.4726 37.3372C16.1939 35.8261 12.6196 35.0485 9.00351 35.0598C8.96282 31.7856 9.61068 28.5388 10.9058 25.5261Z" fill="url(#paint2_linear_4342_3241)"/>
<defs>
<linearGradient id="paint0_linear_4342_3241" x1="27.3061" y1="3.49957" x2="27.3061" y2="52.9662" gradientUnits="userSpaceOnUse">
<stop stop-color="#E3E2F1"/>
<stop offset="1" stop-color="#B7BDEF"/>
</linearGradient>
<linearGradient id="paint1_linear_4342_3241" x1="27.3061" y1="20.8716" x2="27.3061" y2="23.7731" gradientUnits="userSpaceOnUse">
<stop stop-color="#5F66E2"/>
<stop offset="1" stop-color="#6D66D5"/>
</linearGradient>
<linearGradient id="paint2_linear_4342_3241" x1="27.308" y1="25.6932" x2="27.308" y2="42.2227" gradientUnits="userSpaceOnUse">
<stop stop-color="#4147D4"/>
<stop offset="1" stop-color="#0409B7"/>
</linearGradient>
</defs>
</svg>
